<svg id="svg" xmlns="http://www.w3.org/2000/svg" xmlns:xlink="http://www.w3.org/1999/xlink" width="400" height="400" viewBox="0, 0, 400,400" version="1.1"><path d="M100.631 32.441 C 89.478 36.277,85.919 46.182,86.563 71.600 C 87.323 101.593,90.831 120.310,101.230 149.857 C 106.525 164.901,106.581 164.471,97.345 179.536 C 94.558 184.081,91.245 189.338,89.983 191.219 C 88.721 193.099,86.055 197.269,84.058 200.485 C 82.061 203.701,78.918 208.643,77.075 211.467 C 52.055 249.782,48.532 261.123,58.579 271.000 C 69.244 281.484,88.502 277.548,134.000 255.584 C 149.081 248.303,147.453 247.441,163.134 271.000 C 181.037 297.895,188.660 307.786,209.207 330.786 C 211.081 332.884,213.687 335.860,214.998 337.400 C 216.310 338.940,219.460 342.540,221.998 345.400 C 224.536 348.260,227.600 351.763,228.806 353.185 C 237.779 363.757,243.158 369.005,247.281 371.208 C 265.987 381.204,286.115 361.673,276.700 342.661 C 274.299 337.813,262.916 326.772,241.638 308.650 C 239.087 306.478,235.650 303.497,234.000 302.027 C 232.350 300.556,229.391 298.021,227.423 296.393 C 218.161 288.726,193.276 263.525,183.052 251.457 C 171.812 238.191,171.724 237.205,181.185 230.664 C 188.378 225.690,188.772 217.758,181.998 214.268 C 178.082 212.251,175.035 212.876,167.600 217.218 C 162.342 220.289,159.766 220.204,156.411 216.849 C 151.001 211.439,133.834 182.571,129.449 171.511 C 126.973 165.265,127.145 163.421,131.166 153.112 C 138.603 134.044,141.093 120.656,140.672 102.000 C 139.654 56.790,121.505 25.263,100.631 32.441 M286.677 35.589 C 280.924 37.837,278.339 42.500,277.025 53.000 C 276.283 58.934,273.416 78.351,272.811 81.541 C 271.483 88.543,268.465 90.517,259.000 90.574 C 249.363 90.631,248.447 85.310,254.830 66.344 C 259.417 52.710,253.686 40.267,242.800 40.226 C 233.641 40.191,230.265 45.849,229.809 62.000 C 229.006 90.381,228.113 92.686,217.565 93.607 C 205.204 94.686,203.284 94.913,200.458 95.636 C 188.579 98.675,184.610 110.822,192.869 118.867 C 197.749 123.621,203.807 124.411,211.000 121.232 C 220.666 116.961,224.828 120.147,222.211 129.814 C 220.503 136.126,216.991 137.389,191.162 140.985 C 178.687 142.722,174.486 145.888,174.066 153.870 C 173.508 164.495,183.357 169.689,196.800 165.858 C 216.646 160.201,217.105 160.682,211.836 181.600 C 205.027 208.630,204.741 211.836,208.868 214.913 C 213.117 218.079,217.240 214.111,218.289 205.845 C 220.031 192.125,227.831 162.563,230.784 158.485 C 233.011 155.412,237.027 153.762,247.623 151.569 C 258.673 149.282,260.634 150.062,260.552 156.711 C 260.505 160.534,250.710 211.222,247.164 225.992 C 244.631 236.544,245.575 240.800,250.451 240.800 C 255.644 240.800,255.820 240.354,261.217 213.400 C 265.424 192.389,273.120 157.237,274.471 152.866 C 276.595 145.989,282.677 144.035,302.736 143.786 C 314.524 143.640,317.565 142.350,317.593 137.484 C 317.623 132.442,313.514 130.729,302.826 131.325 C 282.274 132.472,280.200 130.860,284.386 117.000 C 288.238 104.243,290.574 103.111,313.200 103.035 C 326.194 102.992,328.400 102.121,328.400 97.034 C 328.400 92.020,325.435 90.714,313.200 90.342 C 296.339 89.828,294.400 89.165,294.400 83.915 C 294.400 81.189,297.471 70.916,299.859 65.654 C 307.932 47.866,300.228 30.294,286.677 35.589 M110.346 64.972 C 113.585 66.647,118.838 78.686,121.009 89.405 C 124.730 107.783,121.860 133.256,116.227 131.843 C 108.917 130.008,101.052 69.752,107.489 64.900 C 108.348 64.253,108.987 64.269,110.346 64.972 M265.200 110.741 C 267.344 112.320,267.740 115.600,266.584 122.225 C 265.150 130.453,263.567 131.672,253.058 132.642 C 244.999 133.386,243.095 133.175,241.254 131.334 L 239.888 129.968 240.126 126.884 C 241.017 115.333,244.172 112.572,259.600 109.846 C 261.364 109.534,264.170 109.983,265.200 110.741 M308.510 170.662 C 301.518 173.137,298.347 182.614,301.601 191.311 C 306.949 205.605,324.458 203.635,326.187 188.544 C 327.585 176.343,318.479 167.132,308.510 170.662 M117.102 189.997 C 118.743 190.997,120.711 194.063,123.505 199.972 C 124.709 202.517,128.136 209.626,131.120 215.770 C 139.312 232.634,139.251 232.965,126.851 239.175 C 105.641 249.795,83.797 256.455,78.081 254.044 C 73.410 252.073,75.205 247.059,87.333 228.200 C 89.314 225.120,93.212 219.000,95.996 214.600 C 112.934 187.827,113.143 187.583,117.102 189.997 M294.706 218.798 C 288.893 220.549,286.414 224.766,283.214 238.349 C 281.127 247.207,279.434 252.606,275.789 262.027 C 272.605 270.257,270.334 275.260,260.500 295.714 C 256.048 304.974,255.690 307.927,258.627 311.178 C 261.490 314.347,265.637 314.169,269.416 310.716 C 274.642 305.939,291.656 278.140,299.599 261.400 C 300.851 258.760,303.982 252.335,306.556 247.121 C 311.740 236.621,312.308 234.746,311.564 230.600 C 310.079 222.319,301.938 216.620,294.706 218.798 " stroke="none" fill="currentColor" fill-rule="evenodd"></path></svg>