<svg width="87" height="87" viewBox="0 0 87 87" fill="none" xmlns="http://www.w3.org/2000/svg">
<path fill-rule="evenodd" clip-rule="evenodd" d="M20.245 5.25C19.695 5.938 18.939 7.499 18.565 8.719C18.191 9.939 18.364 14.439 18.95 18.719C19.536 22.999 20.738 28.532 21.621 31.015C23.226 35.529 23.226 35.529 17.113 45.083C13.576 50.611 11 55.752 11 57.283C11 58.927 11.776 60.345 13.049 61.026C14.554 61.832 16.081 61.804 18.799 60.924C20.835 60.265 24.525 58.813 27 57.697C29.475 56.581 31.816 55.505 32.203 55.304C32.59 55.104 34.499 57.316 36.445 60.22C38.392 63.124 43.25 69.395 47.242 74.156C51.234 78.918 55.4 83.244 56.5 83.771C57.6 84.298 59.45 84.378 60.612 83.948C61.773 83.518 62.941 82.335 63.207 81.317C63.473 80.3 63.423 78.742 63.095 77.855C62.768 76.968 58.225 72.443 53 67.798C47.775 63.153 42.275 57.745 40.778 55.78C38.056 52.207 38.056 52.207 40.278 50.699C42.089 49.47 42.264 48.947 41.225 47.87C40.169 46.777 39.583 46.779 37.812 47.885C35.923 49.065 35.483 48.966 34.023 47.03C33.114 45.826 31.305 42.889 30.002 40.504C27.633 36.167 27.633 36.167 29.463 30.122C30.818 25.647 31.128 22.498 30.657 17.993C30.307 14.646 29.508 10.916 28.882 9.704C28.256 8.492 27.056 6.713 26.217 5.75C25.377 4.787 23.915 4 22.967 4C22.02 4 20.795 4.563 20.245 5.25ZM64.067 6.874C63.48 7.971 62.994 9.911 62.986 11.184C62.979 12.458 62.701 14.512 62.37 15.75C61.932 17.382 61.022 18 59.057 18C56.346 18 56.346 18 57.371 12.998C58.143 9.231 58.093 7.693 57.17 6.77C56.273 5.873 55.484 5.834 54.222 6.624C53.066 7.348 52.336 9.479 52 13.102C51.501 18.493 51.495 18.5 47.826 18.806C45.805 18.974 43.66 19.704 43.059 20.429C42.458 21.154 42.264 22.525 42.63 23.478C43.166 24.875 44.051 25.088 47.22 24.581C50.879 23.996 51.123 24.107 50.823 26.227C50.554 28.118 49.575 28.677 45 29.554C40.119 30.489 39.5 30.883 39.5 33.054C39.5 35.012 39.998 35.488 42 35.44C43.375 35.407 45.579 35.018 46.898 34.576C49.189 33.807 49.264 33.92 48.583 37.136C48.192 38.986 47.616 41.962 47.305 43.75C46.977 45.629 47.161 47 47.739 47C48.289 47 49.256 44.413 49.886 41.25C50.517 38.087 51.409 34.905 51.87 34.178C52.331 33.45 54.348 32.485 56.354 32.033C58.359 31.581 60 31.34 60 31.497C60 31.655 59.078 36.385 57.95 42.009C56.823 47.633 56.172 52.506 56.505 52.838C56.837 53.17 57.453 52.885 57.874 52.203C58.295 51.522 59.446 46.687 60.43 41.458C61.738 34.514 62.712 31.689 64.045 30.976C65.048 30.439 67.473 30 69.434 30C71.395 30 73 29.55 73 29C73 28.45 70.926 28 68.392 28C63.866 28 63.795 27.95 64.462 25.25C64.836 23.738 65.526 22.106 65.997 21.624C66.468 21.142 68.686 20.699 70.926 20.641C73.491 20.573 75 20.065 75 19.267C75 18.45 73.539 18 70.883 18C66.887 18 66.788 17.92 67.479 15.25C67.871 13.738 68.261 10.935 68.346 9.023C68.458 6.484 68.046 5.456 66.817 5.213C65.892 5.029 64.655 5.777 64.067 6.874ZM26.958 22C26.964 24.475 26.583 27.111 26.11 27.857C25.634 28.608 24.992 28.796 24.671 28.277C24.353 27.763 23.606 24.294 23.011 20.57C22.416 16.845 22.243 12.831 22.626 11.649C23.252 9.719 23.507 9.907 25.135 13.5C26.132 15.7 26.952 19.525 26.958 22ZM61 25C61 27.762 60.722 28 57.5 28C55.133 28 54 27.537 54 26.571C54 25.786 54.707 24.436 55.571 23.571C56.436 22.707 58.011 22 59.071 22C60.548 22 61 22.704 61 25ZM69.667 37.667C69.3 38.033 69 39.103 69 40.044C69 40.985 69.698 42.334 70.55 43.042C71.827 44.101 72.375 44.054 73.653 42.776C74.633 41.795 74.959 40.445 74.535 39.112C74.167 37.95 73.071 37 72.099 37C71.128 37 70.033 37.3 69.667 37.667ZM29.836 52.133C29.101 52.605 26.121 53.893 23.212 54.995C20.304 56.098 17.267 57 16.462 57C15.658 57 15 56.663 15 56.25C15 55.837 17.302 51.907 20.116 47.515L25.232 39.53L28.202 45.403C30.568 50.082 30.9 51.45 29.836 52.133ZM66.333 49.207C65.792 49.918 64.771 52.525 64.062 55C63.354 57.475 61.688 61.647 60.36 64.271C58.259 68.422 58.149 69.12 59.516 69.644C60.38 69.976 61.294 70.039 61.548 69.785C61.803 69.531 64.047 65.763 66.535 61.411C69.292 56.591 70.951 52.527 70.78 51.009C70.626 49.638 69.784 48.381 68.908 48.216C68.032 48.05 66.874 48.496 66.333 49.207Z" fill="currentColor"/>
</svg>
